<svg xmlns="http://www.w3.org/2000/svg" viewBox="0 0 1200 630" width="1200" height="630">
  <!-- Background gradient (brand-900 to brand-700) -->
  <defs>
    <linearGradient id="bg" x1="0" y1="0" x2="1" y2="1">
      <stop offset="0%" stop-color="#064e3b"/>
      <stop offset="100%" stop-color="#047857"/>
    </linearGradient>
    <radialGradient id="glow" cx="0.85" cy="0.15" r="0.6">
      <stop offset="0%" stop-color="#10b981" stop-opacity="0.35"/>
      <stop offset="100%" stop-color="#10b981" stop-opacity="0"/>
    </radialGradient>
  </defs>

  <rect width="1200" height="630" fill="url(#bg)"/>
  <rect width="1200" height="630" fill="url(#glow)"/>

  <!-- Decorative dots grid -->
  <g fill="#ffffff" fill-opacity="0.05">
    <circle cx="100" cy="100" r="2"/>
    <circle cx="180" cy="100" r="2"/>
    <circle cx="260" cy="100" r="2"/>
    <circle cx="100" cy="180" r="2"/>
    <circle cx="180" cy="180" r="2"/>
    <circle cx="100" cy="260" r="2"/>
    <circle cx="1100" cy="530" r="2"/>
    <circle cx="1020" cy="530" r="2"/>
    <circle cx="940" cy="530" r="2"/>
    <circle cx="1100" cy="450" r="2"/>
    <circle cx="1020" cy="450" r="2"/>
    <circle cx="1100" cy="370" r="2"/>
  </g>

  <!-- Logo group (vertically centered, padded left) -->
  <g transform="translate(100, 220)">
    <!-- V box -->
    <rect x="0" y="0" width="80" height="80" rx="18" fill="#ffffff"/>
    <text x="40" y="60" font-family="Inter, -apple-system, system-ui, sans-serif" font-size="52" font-weight="800" fill="#047857" text-anchor="middle">V</text>

    <!-- Brand text -->
    <text x="105" y="60" font-family="Inter, -apple-system, system-ui, sans-serif" font-size="64" font-weight="800" fill="#ffffff">VertooERP</text>
  </g>

  <!-- Subtitle -->
  <text x="100" y="380" font-family="Inter, -apple-system, system-ui, sans-serif" font-size="40" font-weight="600" fill="#ffffff" fill-opacity="0.92">
    Die modulare Business-Plattform
  </text>

  <text x="100" y="440" font-family="Inter, -apple-system, system-ui, sans-serif" font-size="26" font-weight="400" fill="#ffffff" fill-opacity="0.7">
    20+ Module · Buchhaltung · Warenwirtschaft · Aufgaben · Chat
  </text>

  <!-- Bottom bar with badge -->
  <g transform="translate(100, 520)">
    <rect x="0" y="0" width="330" height="44" rx="22" fill="#ffffff" fill-opacity="0.12" stroke="#ffffff" stroke-opacity="0.25" stroke-width="1"/>
    <circle cx="22" cy="22" r="4" fill="#34d399"/>
    <text x="38" y="29" font-family="Inter, -apple-system, system-ui, sans-serif" font-size="15" font-weight="500" fill="#ffffff">
      Self-Hosting · DSGVO · GoBD
    </text>
  </g>

  <!-- Domain bottom right -->
  <text x="1100" y="595" font-family="Inter, -apple-system, system-ui, sans-serif" font-size="22" font-weight="600" fill="#ffffff" fill-opacity="0.6" text-anchor="end">
    vertoo.de
  </text>
</svg>
